<svg width="18" height="18" viewBox="0 0 18 18" fill="none" xmlns="http://www.w3.org/2000/svg">
<path d="M5.25 5.25V3C5.25 2.40326 5.48705 1.83097 5.90901 1.40901C6.33097 0.987053 6.90326 0.75 7.5 0.75H10.5C11.0967 0.75 11.669 0.987053 12.091 1.40901C12.5129 1.83097 12.75 2.40326 12.75 3C12.75 3.59674 12.5129 4.16903 12.091 4.59099C11.669 5.01295 11.0967 5.25 10.5 5.25H0.75V13.5C0.75 14.4946 1.14509 15.4484 1.84835 16.1517C2.55161 16.8549 3.50544 17.25 4.5 17.25H13.5C14.4946 17.25 15.4484 16.8549 16.1517 16.1517C16.8549 15.4484 17.25 14.4946 17.25 13.5V5.25H14.5" stroke="#111111" stroke-width="1.5"/>
</svg>
