<svg width="18" height="18" viewBox="0 0 18 18" fill="none" xmlns="http://www.w3.org/2000/svg">
<path d="M10.962 13.296C9.91599 13.9224 8.71921 14.2521 7.50001 14.25C6.6134 14.2512 5.7353 14.0772 4.91618 13.7379C4.09707 13.3986 3.35308 12.9008 2.72701 12.273C2.09924 11.6469 1.6014 10.9029 1.26212 10.0838C0.922837 9.26471 0.748797 8.38661 0.750006 7.50001C0.750006 5.63601 1.50501 3.94901 2.72701 2.72701C3.35308 2.09924 4.09707 1.6014 4.91618 1.26212C5.7353 0.922837 6.6134 0.748797 7.50001 0.750006C9.36401 0.750006 11.051 1.50501 12.273 2.72701C12.9008 3.35308 13.3986 4.09707 13.7379 4.91618C14.0772 5.7353 14.2512 6.6134 14.25 7.50001C14.2517 8.69741 13.9338 9.87357 13.329 10.907C12.812 11.789 12.895 12.895 13.618 13.618L17.471 17.471" stroke="#111111" stroke-width="1.5"/>
</svg>
