<svg width="10" height="14" viewBox="0 0 10 14" fill="none" xmlns="http://www.w3.org/2000/svg">
<path fill-rule="evenodd" clip-rule="evenodd" d="M0.3125 4.98486C0.3125 3.74166 0.80636 2.54938 1.68544 1.6703C2.56451 0.791223 3.7568 0.297363 5 0.297363C6.2432 0.297363 7.43549 0.791223 8.31456 1.6703C9.19364 2.54938 9.6875 3.74166 9.6875 4.98486C9.6875 5.73799 9.44687 6.59486 9.10375 7.43986C8.75688 8.29236 8.29 9.16924 7.80375 9.97424C7.36001 10.7079 6.87875 11.4182 6.36188 12.1024C5.93187 12.668 5.53938 13.1224 5.2925 13.3192C5.20944 13.3856 5.1063 13.4217 5 13.4217C4.8937 13.4217 4.79056 13.3856 4.7075 13.3192C4.46062 13.1224 4.06813 12.668 3.63812 12.1024C3.12146 11.4182 2.64041 10.7079 2.19687 9.97424C1.70937 9.16924 1.24312 8.29236 0.896875 7.43924C0.553125 6.59486 0.3125 5.73799 0.3125 4.98486ZM5 7.01549C5.53872 7.01549 6.05538 6.80148 6.43631 6.42055C6.81724 6.03962 7.03125 5.52296 7.03125 4.98424C7.03125 4.44552 6.81724 3.92886 6.43631 3.54793C6.05538 3.16699 5.53872 2.95299 5 2.95299C4.46128 2.95299 3.94462 3.16699 3.56369 3.54793C3.18276 3.92886 2.96875 4.44552 2.96875 4.98424C2.96875 5.52296 3.18276 6.03962 3.56369 6.42055C3.94462 6.80148 4.46128 7.01549 5 7.01549Z" fill="white"/>
</svg>
